<?xml version="1.0" encoding="UTF-8" standalone="no"?>
<!-- Created with Inkscape (http://www.inkscape.org/) -->

<svg
   xmlns:dc="http://purl.org/dc/elements/1.1/"
   xmlns:cc="http://creativecommons.org/ns#"
   xmlns:rdf="http://www.w3.org/1999/02/22-rdf-syntax-ns#"
   xmlns:svg="http://www.w3.org/2000/svg"
   xmlns="http://www.w3.org/2000/svg"
   xmlns:sodipodi="http://sodipodi.sourceforge.net/DTD/sodipodi-0.dtd"
   xmlns:inkscape="http://www.inkscape.org/namespaces/inkscape"
   version="1.1"
   id="svg924"
   width="433.33334"
   height="388"
   viewBox="0 0 433.33334 388"
   sodipodi:docname="map.svg"
   inkscape:version="0.92.3 (2405546, 2018-03-11)">
  <metadata
     id="metadata930">
    <rdf:RDF>
      <cc:Work
         rdf:about="">
        <dc:format>image/svg+xml</dc:format>
        <dc:type
           rdf:resource="http://purl.org/dc/dcmitype/StillImage" />
        <dc:title></dc:title>
      </cc:Work>
    </rdf:RDF>
  </metadata>
  <defs
     id="defs928" />
  <sodipodi:namedview
     pagecolor="#ffffff"
     bordercolor="#666666"
     borderopacity="1"
     objecttolerance="10"
     gridtolerance="10"
     guidetolerance="10"
     inkscape:pageopacity="0"
     inkscape:pageshadow="2"
     inkscape:window-width="1920"
     inkscape:window-height="974"
     id="namedview926"
     showgrid="false"
     inkscape:zoom="1.3285589"
     inkscape:cx="104.70505"
     inkscape:cy="243.27187"
     inkscape:window-x="0"
     inkscape:window-y="27"
     inkscape:window-maximized="1"
     inkscape:current-layer="svg924" />
  <path
     inkscape:connector-curvature="0"
     id="path938"
     d="M 0.75269674,194 V 0 H 217.41937 434.08604 V 194 388 H 217.41937 0.75269674 Z"
     style="fill:#fdfefd;stroke-width:1.33333337" />
  <path
     inkscape:connector-curvature="0"
     id="path936"
     d="m 192.7527,385.11831 c -9.43506,-2.48994 -16.01129,-6.47248 -15.99089,-9.68406 0.005,-0.78884 2.10501,-2.8616 4.66667,-4.60612 2.56165,-1.74453 4.65756,-3.6256 4.65756,-4.18016 0,-0.55456 -2.78999,-4.39726 -6.19998,-8.53934 l -6.19998,-7.53106 -3.00622,2.8242 -3.00622,2.82419 -5.4502,-3.11297 c -5.86063,-3.34742 -6.18331,-3.95686 -4.12818,-7.79691 1.1318,-2.11477 0.4509,-3.12209 -4.33722,-6.4164 l -5.67979,-3.9078 -2.39169,3.17072 c -3.00856,3.98855 -3.79442,3.96261 -10.29578,-0.33979 l -5.30474,-3.5105 v -10.4895 -10.48948 l -11.66667,0.005 -11.66667,0.005 -3.97381,9.99448 c -2.1856,5.49733 -4.195867,9.99485 -4.467262,9.99485 -0.271396,0 -5.08318,-4.03302 -10.692855,-8.96228 -5.609675,-4.92925 -10.482549,-9.1624 -10.828611,-9.40697 -0.346061,-0.24459 1.04606,-3.42493 3.093604,-7.06741 3.350259,-5.95998 3.568264,-7.09099 2.178491,-11.30204 -1.292475,-3.91624 -3.047224,-5.43618 -10.760271,-9.3204 -5.068775,-2.5526 -9.195463,-5.08355 -9.170419,-5.62432 0.02504,-0.54079 1.157163,-5.67228 2.515816,-11.40334 l 2.470279,-10.4201 -6.560892,-4.89816 c -7.61589,-5.68579 -7.887034,-5.22431 7.792669,-13.26296 5.362574,-2.74927 10.002294,-5.89868 10.310487,-6.99868 0.308195,-1.1 0.936815,-3.87712 1.396935,-6.17139 0.823947,-4.1084 0.742339,-4.18552 -5.404256,-5.10727 -3.43246,-0.51472 -7.064128,-1.25178 -8.070372,-1.63792 -3.070022,-1.17808 -2.254014,-12.28496 1.367886,-18.61864 l 3.165302,-5.53521 -3.21256,-5.65581 c -1.766908,-3.1107 -3.025995,-5.84238 -2.797971,-6.0704 0.228023,-0.22802 2.798243,-0.79575 5.7116,-1.26162 5.215677,-0.83401 5.378692,-0.73302 10.61661,6.57687 2.92578,4.08313 6.088869,7.43681 7.02909,7.45263 0.94022,0.0159 3.775104,-0.83431 6.299743,-1.88918 l 4.590254,-1.91792 5.033593,5.7462 c 6.10567,6.97006 14.40283,10.08274 26.93777,10.10572 6.90527,0.012 10.01026,0.72931 14.64959,3.38123 l 5.8871,3.36517 4.17637,-4.04789 c 3.60671,-3.49576 5.16119,-4.04791 11.39615,-4.04791 6.20112,0 7.61482,-0.49545 10.01976,-3.51152 l 2.79998,-3.51152 8.04763,7.17819 c 6.00888,5.35971 10.33183,7.91973 17.06416,10.10533 l 9.01652,2.92714 3.30447,-3.92714 c 1.81746,-2.15993 3.90694,-3.92714 4.6433,-3.92714 0.73635,0 7.00044,3.15 13.9202,7 12.45176,6.92789 12.57347,7.04464 11.81556,11.33333 -0.69702,3.94417 -0.46434,4.33333 2.59088,4.33333 2.74214,0 3.86515,1.18196 6.13392,6.45586 1.52748,3.55072 5.59416,9.19584 9.03707,12.5447 5.7808,5.6229 7.62027,6.47842 24.03768,11.17972 16.34669,4.68104 17.88044,4.90758 19.05211,2.81391 1.14166,-2.04005 2.06654,-1.74152 8.88881,2.86908 10.81158,7.30665 13.70094,8.61804 37.24376,16.90381 19.15846,6.74272 39.20146,11.24034 49.70414,11.15352 2.402,-0.0199 4.82348,-1.92118 8.66666,-6.80501 2.93334,-3.72761 8.84883,-9.17037 13.14555,-12.09504 l 7.81221,-5.31759 -0.89765,7.14852 c -0.49371,3.9317 -2.74013,16.57236 -4.99205,28.0904 l -4.0944,20.94188 2.8465,22.57788 c 3.76427,29.85742 4.22207,27.1744 -4.15349,24.34251 l -7,-2.3668 -2.66667,-12.89392 c -2.51802,-12.17521 -3.01561,-13.24141 -8.92697,-19.12811 l -6.26031,-6.23417 -10.72396,2.30447 -10.72396,2.30445 -8.34906,-6.833 c -11.21416,-9.17785 -13.01574,-11.48499 -13.01574,-16.66835 0,-3.68425 -1.15973,-5.39949 -7,-10.35298 -5.73769,-4.86651 -8.85981,-6.37084 -17.31348,-8.34222 l -10.31347,-2.40508 -5.3532,4.23912 c -17.10926,13.54858 -15.39956,12.63491 -21.83702,11.66955 -5.05607,-0.7582 -6.17719,-1.49592 -7.33923,-4.82933 -1.26213,-3.62058 -1.88232,-3.93438 -7.77424,-3.93366 l -6.40269,7.9e-4 -5.25283,12.99921 c -2.88905,7.14958 -6.04712,14.94926 -7.01793,17.33264 -1.56495,3.84203 -2.0586,4.15015 -4.3532,2.71715 -3.20311,-2.00037 -3.10512,-2.10731 -6.97964,7.61609 l -3.18779,8 -18.33892,7.33334 c -20.16455,8.06336 -18.91649,6.71401 -16.20443,17.51973 0.6328,2.52129 -0.005,3.63648 -3.14128,5.48888 -2.16449,1.2786 -4.14285,2.27012 -4.39637,2.20339 -0.25352,-0.066 -4.96095,-1.30823 -10.46095,-2.75969 z M 151.17018,277 c 0.26791,-1.40567 -0.37265,-2.33333 -1.6112,-2.33333 -1.38192,0 -1.78674,0.76494 -1.23486,2.33333 0.6354,1.80571 0.4469,1.98848 -0.83355,0.80829 -2.4172,-2.2279 -1.14404,-6.5628 1.7776,-6.05245 1.44607,0.2526 2.06524,-0.14956 1.53965,-1 -1.47653,-2.38908 -5.82404,-1.58439 -6.72178,1.24416 -1.37959,4.34668 0.50084,8.21197 3.76756,7.7444 1.57953,-0.22609 3.07198,-1.46107 3.31658,-2.7444 z m 7.58252,-2.33333 c 0,-3.82438 -0.54146,-4.74358 -3,-5.09274 -2.69653,-0.38297 -3,0.13214 -3,5.09274 0,4.96056 0.30347,5.4757 3,5.09273 2.45854,-0.34916 3,-1.26836 3,-5.09273 z M 154.8164,277 c -0.55862,-1.28333 -0.55862,-3.38333 0,-4.66667 0.96729,-2.22222 1.04224,-2.22222 1.57374,0 0.30695,1.28334 0.30695,3.38334 0,4.66667 -0.5315,2.22223 -0.60645,2.22223 -1.57374,0 z m 10.56296,1.60192 c 1.44166,2.33268 6.03605,1.62601 6.08056,-0.93525 0.0387,-2.22223 0.1052,-2.22223 1.39958,0 2.26488,3.88856 3.8932,2.63382 3.8932,-3 0,-2.93334 -0.6,-5.33334 -1.33333,-5.33334 -0.73333,0 -1.35157,1.35 -1.37388,3 -0.0369,2.73524 -0.16393,2.78792 -1.43865,0.59686 -1.0213,-1.75544 -0.92052,-2.98111 0.37388,-4.54754 1.60394,-1.94104 1.48748,-1.96722 -1.22802,-0.27613 -2.11197,1.31525 -3.04988,3.25337 -3.16849,6.54755 l -0.16849,4.67926 -1.39999,-5 c -1.63888,-5.85313 -3.15455,-6.33564 -4.96269,-1.57986 -1.98882,5.23096 -1.72816,7.92812 0.58096,6.01172 1.28608,-1.06735 2.15468,-1.119 2.74536,-0.16327 z m 22.08241,-1.13816 c 0.0369,-1.85443 0.27188,-1.82815 1.81367,0.20291 2.41664,3.18353 3.90246,2.95253 2.14393,-0.33334 -1.01399,-1.89465 -1.01399,-3.43868 0,-5.33333 1.79055,-3.34567 -0.62235,-3.65987 -2.55987,-0.33333 -1.1646,1.99949 -1.36484,2.02852 -1.39958,0.2029 -0.0276,-1.45212 -1.33806,-2.16732 -4.11579,-2.24629 -4.68921,-0.13333 -6.95708,3.31992 -3.46408,5.27469 1.21329,0.679 2.20599,1.87819 2.20599,2.66487 0,0.91623 -0.71887,0.83373 -2,-0.22951 -1.1,-0.91292 -2,-1.08638 -2,-0.38548 0,2.15122 1.42676,2.87114 5.46269,2.75639 2.59193,-0.0737 3.88465,-0.81387 3.91304,-2.24048 z m -5.28113,-3.34977 c -2.1086,-2.54072 -1.47762,-3.79279 1.10653,-2.1957 0.9848,0.60864 1.54549,1.84182 1.24597,2.74038 -0.38734,1.16206 -1.06654,1.0048 -2.3525,-0.54468 z m -38.0946,-68.78066 c -1.46667,-0.63025 -7.2193,-1.18808 -12.78361,-1.23961 L 121.18549,204 119.94923,191.66667 c -1.19924,-11.96403 -1.12611,-12.5613 2.44246,-19.94651 4.00989,-8.29852 3.20919,-7.86108 22.3532,-12.21221 4.76236,-1.08242 8.83977,-1.78711 9.06089,-1.56598 0.22114,0.22112 1.43052,4.22464 2.68755,8.89671 l 2.28551,8.49465 5.96077,0.425 c 7.97912,0.56892 9.48103,1.93804 7.59816,6.92635 -1.12177,2.97192 -1.06012,5.07152 0.25577,8.71056 2.4239,6.70316 -0.50174,9.92639 -9.04749,9.96775 -4.01919,0.0195 -7.27329,0.92654 -9.46001,2.63701 -3.60379,2.81893 -5.84686,3.118 -10,1.33333 z m -4.93334,-17.6 c 1.24444,-1.24444 1.6,-1.22384 1.6,0.0927 0,0.99279 1.24051,1.51656 3,1.26667 2.45854,-0.34916 3,-1.26836 3,-5.09274 0,-3.75821 -0.55752,-4.74613 -2.86392,-5.0749 -2.05284,-0.29262 -3.18566,0.53061 -4,2.90682 -1.0511,3.06708 -1.33554,3.16468 -3.80274,1.30482 -1.77819,-1.34048 -1.98719,-1.86474 -0.62727,-1.5735 1.12168,0.24022 2.32168,-0.16324 2.66667,-0.89657 0.345,-0.73333 -0.64638,-1.51505 -2.20303,-1.73716 -3.87697,-0.55317 -5.16116,3.30356 -1.79912,5.40319 1.44617,0.90316 2.62941,2.17124 2.62941,2.81796 0,0.64673 -0.84658,0.47326 -1.88129,-0.38547 -1.0641,-0.88313 -2.2067,-1.03483 -2.63042,-0.34924 -1.8077,2.92492 4.16565,4.06345 6.91171,1.31739 z m 3.6637,-1.4 c -0.55862,-1.28333 -0.55862,-3.38333 0,-4.66666 0.96729,-2.22223 1.04224,-2.22223 1.57374,0 0.30695,1.28333 0.30695,3.38333 0,4.66666 -0.5315,2.22223 -0.60645,2.22223 -1.57374,0 z m 12.13445,-5.63108 c -0.42961,-1.11957 -1.99995,-2.03558 -3.48964,-2.03558 -2.26559,0 -2.70851,0.86174 -2.70851,5.26966 v 5.26967 l 3.48964,-3.23408 c 2.08292,-1.9304 3.17476,-4.05465 2.70851,-5.26967 z m -4.86481,2.04311 c 0,-0.69005 0.6,-1.62547 1.33333,-2.07869 0.73333,-0.45323 1.33333,0.11133 1.33333,1.25464 0,1.14328 -0.6,2.07869 -1.33333,2.07869 -0.73333,0 -1.33333,-0.56459 -1.33333,-1.25464 z m 12.66666,1.23637 c 0,-3.7595 -0.50993,-4.6484 -2.66666,-4.6484 -1.77535,0 -2.81332,1.03515 -3.10544,3.09698 -0.63519,4.4833 0.75086,7.16684 3.43474,6.64997 1.69456,-0.32635 2.33736,-1.72851 2.33736,-5.09855 z M 159.41937,184 c 0,-2.43207 0.55333,-3.8154 1.33333,-3.33333 0.73334,0.45322 1.33334,1.95322 1.33334,3.33333 0,1.38011 -0.6,2.88011 -1.33334,3.33333 -0.78,0.48207 -1.33333,-0.90126 -1.33333,-3.33333 z m 9.33333,0.77777 c 0,-2.50554 0.75,-4.85818 1.66667,-5.22806 0.91667,-0.36988 0.15081,-0.71988 -1.70191,-0.77778 -3.13938,-0.0981 -3.33396,0.25759 -2.85994,5.22807 0.62014,6.5028 2.89518,7.11399 2.89518,0.77777 z M 106.08603,192 c -9.136137,-7.30316 -10.064386,-7.60683 -14.263097,-4.66593 -2.732639,1.91401 -3.132293,1.62505 -9.2205,-6.66667 C 79.102205,175.90033 75.788126,172 75.237813,172 c -0.550315,0 -1.920792,1.3138 -3.045508,2.91956 -1.124716,1.60575 -2.255722,2.65575 -2.513348,2.33333 -0.257626,-0.32242 -2.180874,-2.88636 -4.273884,-5.69762 l -3.805474,-5.11139 2.533023,-4.70353 2.533021,-4.70355 -4.62314,-4.03657 C 49.461692,142.01561 49.009732,141.46735 48.100867,136.08781 c -1.002859,-5.93586 -1.087623,-6.0112 -4.630375,-4.11517 -2.084212,1.11543 -3.27717,-0.003 -8.176865,-7.66667 -3.155151,-4.93495 -5.911779,-9.21681 -6.125839,-9.51525 -0.21406,-0.29843 -4.972876,0.78924 -10.575148,2.41705 l -10.185948,2.95965 -3.734089,-3.57749 -3.73408895,-3.57748 4.78004075,-7.19926 c 4.4495492,-6.701509 5.9466882,-7.709766 13.0341422,-8.777929 2.281988,-0.343922 2.808683,-1.823773 3.651146,-10.258613 0.541462,-5.421195 1.141462,-9.959115 1.333333,-10.084268 0.191869,-0.125155 3.348855,-1.423308 7.015521,-2.884785 6.374354,-2.54072 6.684645,-2.901687 7.076665,-8.232414 L 38.239359,60 h -4.743331 c -4.035515,0 -4.740613,-0.447669 -4.725124,-3 0.03783,-6.232495 1.781913,-8.517173 11.450782,-15 7.553288,-5.064364 11.086856,-8.523213 14.702033,-14.391159 l 4.758976,-7.724493 4.868335,3.645405 c 2.677584,2.004972 6.752817,5.052235 9.056075,6.771695 l 4.18774,3.126291 2.478927,-3.314803 c 2.108074,-2.818903 3.675742,-3.353931 10.478926,-3.576344 4.4,-0.143848 11.726532,0.209593 16.281182,0.785424 8.16752,1.032596 8.41212,0.967844 17.82307,-4.71834 l 9.54191,-5.765303 -0.73255,-6.185189 c -0.67544,-5.7030357 -0.44366,-6.3558347 2.97327,-8.3742692 l 3.70583,-2.18907992 6.87031,25.77964912 c 6.98588,26.213271 7.72652,32.21434 6.00664,48.669233 -0.7871,7.530472 -1.23047,8.449619 -5,10.365156 -2.27498,1.156063 -4.32704,2.266343 -4.56014,2.467291 -0.2331,0.200948 2.99306,8.366928 7.16924,18.146616 l 7.59307,17.78126 -2.31937,9.83831 c -4.78724,20.30638 -2.68028,17.97254 -19.52442,21.62672 l -14.83893,3.21916 -5.99864,7.79568 -5.99863,7.79568 2.25465,10.2127 c 2.97036,13.45458 3.23834,14.87938 2.79863,14.87938 -0.20454,0 -4.12484,-3 -8.71179,-6.66667 z M 77.836842,98.333333 C 78.104756,96.927664 77.46419,96 76.225643,96 c -1.381913,0 -1.786746,0.764952 -1.234861,2.333333 0.635395,1.805697 0.446904,1.988477 -0.833553,0.808294 -2.417198,-2.22791 -1.14404,-6.562796 1.777608,-6.052451 1.446056,0.252592 2.065237,-0.149568 1.539641,-1 -1.476532,-2.389079 -5.824036,-1.584384 -6.72178,1.244157 -1.379584,4.346683 0.50084,8.211977 3.767565,7.744397 1.579523,-0.22609 3.071985,-1.461063 3.316579,-2.744397 z M 85.419365,96 c 0,-3.824375 -0.541473,-4.743568 -3,-5.092735 -2.69654,-0.382969 -3,0.132179 -3,5.092735 0,4.96056 0.30346,5.4757 3,5.09273 2.458527,-0.34916 3,-1.268355 3,-5.09273 z m -3.936308,2.333333 c -0.558613,-1.283333 -0.558613,-3.383333 0,-4.666666 0.967299,-2.222223 1.042239,-2.222223 1.573751,0 0.306949,1.283333 0.306949,3.383333 0,4.666666 -0.531512,2.222227 -0.606452,2.222227 -1.573751,0 z m 10.276077,0 c 0.357852,-1.65 1.091992,-4.05 1.631422,-5.333333 0.59169,-1.407668 0.395236,-2.333333 -0.495206,-2.333333 -0.811792,0 -1.49423,1.05 -1.51653,2.333333 -0.03861,2.222223 -0.105267,2.222223 -1.399587,0 -1.910227,-3.279661 -4.369444,-3.047891 -2.60678,0.245679 0.759135,1.418456 1.380245,3.818456 1.380245,5.333333 0,3.695728 2.190443,3.516728 3.006436,-0.245679 z m 7.030366,0 c 1.53872,4.906197 3.3063,3.416287 3.16363,-2.666666 -0.10864,-4.632172 -0.30911,-5.05814 -1.09809,-2.333334 l -0.965189,3.333334 -0.99176,-3 c -1.621522,-4.904983 -3.488506,-3.41697 -3.345819,2.666666 0.11344,4.836577 0.291364,5.178377 1.214625,2.333334 l 1.08172,-3.333334 z M 105.69368,93 c -0.31781,-1.65 -0.57783,-0.3 -0.57783,3 0,3.3 0.26002,4.65 0.57783,3 0.3178,-1.65 0.3178,-4.35 0,-6 z m 4.8464,6.666667 c 0.51175,-1.261202 1.0077,-1.189503 2.03862,0.29472 2.18142,3.140623 2.88206,0.967003 1.40852,-4.369692 -1.5662,-5.672315 -3.2595,-6.329899 -4.41762,-1.715563 -0.44304,1.765207 -1.17228,4.165207 -1.62053,5.333333 -0.95215,2.481265 1.58786,2.929465 2.59101,0.457202 z"
     style="fill:#499227;stroke-width:1.33333337" />
</svg>
